<?xml version="1.0" encoding="UTF-8"?>
<!DOCTYPE svg PUBLIC "-//W3C//DTD SVG 1.1//EN" "http://www.w3.org/Graphics/SVG/1.1/DTD/svg11.dtd">
<!-- Creator: CorelDRAW X8 -->
<svg xmlns="http://www.w3.org/2000/svg" xml:space="preserve" width="94.83mm" height="13.896mm" version="1.1" style="shape-rendering:geometricPrecision; text-rendering:geometricPrecision; image-rendering:optimizeQuality; fill-rule:evenodd; clip-rule:evenodd"
viewBox="0 0 9483 1390"
 xmlns:xlink="http://www.w3.org/1999/xlink">
 <defs>
  <style type="text/css">
   <![CDATA[
    .fil2 {fill:#3597DA}
    .fil1 {fill:#DF4A3A;fill-rule:nonzero}
    .fil0 {fill:#FEFEFE;fill-rule:nonzero}
   ]]>
  </style>
 </defs>
 <g id="Слой_x0020_1">
  <metadata id="CorelCorpID_0Corel-Layer"/>
  <g id="_2062349452208">
   <g id="_2062587103344">
    <path class="fil0" d="M2221 879c0,-61 0,-98 0,-157l-221 0 0 -150 249 0c0,-59 0,-99 0,-157 -140,0 -287,0 -427,0l0 686c60,0 119,0 178,0l0 -222 221 0zm561 222l172 0 0 -25 -310 -670 -75 0 -309 670 0 25 172 0 40 -86 270 0 40 86zm-97 -236l-156 0 77 -180 79 180zm481 27c-60,0 -111,0 -170,0 -4,301 555,296 555,8 0,-171 -134,-192 -270,-206 -62,-7 -112,-18 -109,-70 6,-81 191,-89 191,2 59,0 104,0 166,0 4,-296 -529,-296 -523,0 2,149 100,200 249,211 68,4 125,14 125,62 0,81 -214,80 -214,-7zm614 -320l0 529c58,0 116,0 174,0l0 -529 167 0c0,-53 0,-105 0,-157l-510 0c0,52 0,104 0,157l169 0z"/>
    <path class="fil1" d="M4737 626c0,-119 -96,-211 -214,-211l-293 0 0 686 321 0c140,0 213,-97 214,-216 0,-61 -26,-112 -82,-140 33,-28 54,-78 54,-119zm-198 203c70,0 71,116 1,116l-141 0 0 -116 140 0zm-30 -257c71,0 71,111 1,111l-111 0 0 -111 110 0zm1055 187c0,-474 -704,-474 -704,0 0,476 704,476 704,0zm-524 0c0,-247 344,-247 344,0 0,249 -344,249 -344,0zm1318 0c0,-474 -704,-474 -704,0 0,476 704,476 704,0zm-524 0c0,-247 344,-247 344,0 0,249 -344,249 -344,0zm777 133c-59,0 -110,0 -169,0 -4,301 555,296 555,8 0,-171 -134,-192 -270,-206 -62,-7 -113,-18 -109,-70 6,-81 190,-89 190,2 60,0 105,0 167,0 4,-296 -529,-296 -523,0 2,149 100,200 249,211 68,4 125,14 125,62 0,81 -215,80 -215,-7zm615 -320l0 529c58,0 115,0 173,0l0 -529 168 0c0,-53 0,-105 0,-157l-510 0c0,52 0,104 0,157l169 0zm654 375l0 -379 80 0 0 -153 -334 0 0 153 80 0 0 379 -87 0 0 154 348 0 0 -154 -87 0zm729 154l62 0 0 -686c-59,0 -119,0 -179,0l0 336 -347 -339 -64 0 0 689c60,0 121,0 182,0l0 -337 346 337zm195 -343c1,234 177,351 352,351 126,0 256,-55 305,-198 24,-67 24,-132 20,-201l-325 0 0 152 147 0c-32,66 -77,84 -147,84 -104,0 -171,-74 -171,-188 0,-105 60,-191 171,-191 69,0 114,24 143,82l172 0c-33,-170 -177,-242 -315,-243 -175,0 -351,118 -352,352z"/>
   </g>
   <path class="fil2" d="M355 1348c-168,-125 -267,-321 -267,-531 0,-365 296,-661 661,-661 74,0 147,12 217,37 158,33 133,-127 36,-153 -1,-1 -2,-1 -2,-1 -78,-26 -159,-39 -242,-39 -418,0 -758,339 -758,758 0,248 120,478 322,620 39,24 64,9 33,-30zm463 -714c-116,0 -210,94 -210,210 0,115 94,209 210,209 116,0 210,-94 210,-209 0,-14 -2,-28 -4,-42 -2,-8 0,-16 5,-22 93,-126 185,-252 278,-380 23,-29 44,-66 49,-104 2,-17 1,-42 -13,-55 -41,-34 -134,46 -159,71 -102,105 -204,211 -306,316 -7,7 -16,10 -25,9 -12,-2 -23,-3 -35,-3z"/>
  </g>
 </g>
</svg>
